<?xml version="1.0" encoding="UTF-8" standalone="no"?>
<!-- Created with Inkscape (http://www.inkscape.org/) -->

<svg
   xmlns:dc="http://purl.org/dc/elements/1.1/"
   xmlns:cc="http://creativecommons.org/ns#"
   xmlns:rdf="http://www.w3.org/1999/02/22-rdf-syntax-ns#"
   xmlns:svg="http://www.w3.org/2000/svg"
   xmlns="http://www.w3.org/2000/svg"
   xmlns:sodipodi="http://sodipodi.sourceforge.net/DTD/sodipodi-0.dtd"
   xmlns:inkscape="http://www.inkscape.org/namespaces/inkscape"
   width="60.771198mm"
   height="108.68003mm"
   viewBox="0 0 60.771199 108.68003"
   version="1.1"
   id="svg8"
   inkscape:version="0.92.5 (2060ec1f9f, 2020-04-08)"
   sodipodi:docname="birthday.svg">
  <defs
     id="defs2" />
  <sodipodi:namedview
     id="base"
     pagecolor="#ffffff"
     bordercolor="#666666"
     borderopacity="1.0"
     inkscape:pageopacity="0.0"
     inkscape:pageshadow="2"
     inkscape:zoom="1"
     inkscape:cx="-104.23035"
     inkscape:cy="337.57838"
     inkscape:document-units="mm"
     inkscape:current-layer="layer1"
     showgrid="false"
     fit-margin-left="0"
     fit-margin-right="0"
     fit-margin-top="0"
     fit-margin-bottom="0"
     inkscape:window-width="1876"
     inkscape:window-height="1016"
     inkscape:window-x="44"
     inkscape:window-y="27"
     inkscape:window-maximized="1" />
  <metadata
     id="metadata5">
    <rdf:RDF>
      <cc:Work
         rdf:about="">
        <dc:format>image/svg+xml</dc:format>
        <dc:type
           rdf:resource="http://purl.org/dc/dcmitype/StillImage" />
        <dc:title></dc:title>
      </cc:Work>
    </rdf:RDF>
  </metadata>
  <g
     inkscape:label="Layer 1"
     inkscape:groupmode="layer"
     id="layer1"
     transform="translate(-79.04031,-55.86365)">
    <path
       style="fill:#c5c5c5;fill-opacity:1;stroke:none;stroke-width:0.17868732px;stroke-linecap:butt;stroke-linejoin:miter;stroke-opacity:1"
       d="M 88.188094,63.964974 81.69004,160.17225 c 20.20317,6.58402 37.79826,5.07341 58.12147,-0.1805 z"
       id="path815"
       inkscape:connector-curvature="0"
       sodipodi:nodetypes="cccc" />
    <path
       style="fill:#ff0000;stroke:none;stroke-width:0.17868732px;stroke-linecap:butt;stroke-linejoin:miter;stroke-opacity:1"
       d="m 94.849583,163.42233 36.864337,-18.44211 -3.56349,-6.65789 -44.681494,22.40354 2.357685,0.71485 1.823199,0.47878 2.591831,0.61742 1.726391,0.34254 z"
       id="path828"
       inkscape:connector-curvature="0"
       sodipodi:nodetypes="ccccccccc" />
    <path
       style="fill:#ffcc00;stroke:none;stroke-width:0.17868732px;stroke-linecap:butt;stroke-linejoin:miter;stroke-opacity:1"
       d="m 82.764096,144.21639 38.281784,-19.1513 -3.58137,-6.63977 -34.094527,17.04142 z"
       id="path828-6-5"
       inkscape:connector-curvature="0"
       sodipodi:nodetypes="ccccc" />
    <path
       style="fill:#ffcc00;stroke:none;stroke-width:0.17868732px;stroke-linecap:butt;stroke-linejoin:miter;stroke-opacity:1"
       d="m 108.58091,164.51944 26.72428,-12.91991 -3.56955,-6.64696 -36.886057,18.46976 3.375365,0.47753 3.317392,0.35736 2.90521,0.25037 z"
       id="path828-6-3"
       inkscape:connector-curvature="0"
       sodipodi:nodetypes="cccccccc" />
    <path
       style="fill:#ff0000;stroke:none;stroke-width:0.17868732px;stroke-linecap:butt;stroke-linejoin:miter;stroke-opacity:1"
       d="m 83.369983,135.46674 34.094527,-17.04142 -3.57122,-6.63821 -29.940896,14.96065 z"
       id="path828-6-2"
       inkscape:connector-curvature="0"
       sodipodi:nodetypes="ccccc" />
    <path
       style="fill:#ffcc00;fill-opacity:1;stroke:none;stroke-width:0.17868732px;stroke-linecap:butt;stroke-linejoin:miter;stroke-opacity:1"
       d="M 85.104711,109.33621 106.76809,98.517959 103.18625,91.870308 85.714757,100.59752 Z"
       id="path828-6-27"
       inkscape:connector-curvature="0"
       sodipodi:nodetypes="ccccc" />
    <path
       style="fill:#ff0000;stroke:none;stroke-width:0.17868732px;stroke-linecap:butt;stroke-linejoin:miter;stroke-opacity:1"
       d="M 85.714757,100.59752 103.18625,91.870308 99.622766,85.244015 86.28212,91.937506 Z"
       id="path828-6-0"
       inkscape:connector-curvature="0"
       sodipodi:nodetypes="ccccc" />
    <path
       style="fill:#ffcc00;fill-opacity:1;stroke:none;stroke-width:0.17868732px;stroke-linecap:butt;stroke-linejoin:miter;stroke-opacity:1"
       d="m 87.466598,74.427098 5.006137,-2.503066 -2.146547,-4.214343 -2.407793,0.423624 z"
       id="path828-6-06"
       inkscape:connector-curvature="0"
       sodipodi:nodetypes="ccccc" />
    <path
       style="fill:#007bff;fill-opacity:1;stroke:none;stroke-width:0.67535371;stroke-linecap:round;stroke-linejoin:round;stroke-miterlimit:4;stroke-dasharray:none;stroke-opacity:1"
       id="path826"
       sodipodi:type="arc"
       sodipodi:cx="87.466087"
       sodipodi:cy="63.96497"
       sodipodi:rx="4.693038"
       sodipodi:ry="4.693038"
       sodipodi:start="6.0696792"
       sodipodi:end="6.0525226"
       sodipodi:open="true"
       d="m 92.052565,62.970573 a 4.693038,4.693038 0 0 1 -3.572418,5.576567 4.693038,4.693038 0 0 1 -5.591839,-3.548466 4.693038,4.693038 0 0 1 3.52445,-5.607008 4.693038,4.693038 0 0 1 5.622073,3.500368" />
    <path
       sodipodi:type="spiral"
       style="fill:none;fill-rule:evenodd;stroke:#007aff;stroke-width:0.17868732;stroke-opacity:1"
       id="path960"
       sodipodi:cx="84.090714"
       sodipodi:cy="69.515388"
       sodipodi:expansion="1"
       sodipodi:revolution="2.681601"
       sodipodi:radius="2.3958402"
       sodipodi:argument="-18.064157"
       sodipodi:t0="0.55094588"
       d="m 83.034734,68.723397 c 0.405129,-0.681727 1.32278,-0.848318 1.981987,-0.442674 0.778521,0.479063 0.965331,1.537671 0.487345,2.29469 -0.552759,0.875442 -1.752668,1.082492 -2.607393,0.532015 -0.97245,-0.626297 -1.199758,-1.967738 -0.576685,-2.920096 0.555655,-0.849312 1.641644,-1.211998 2.604923,-0.917865" />
    <path
       sodipodi:type="spiral"
       style="fill:none;fill-rule:evenodd;stroke:#007aff;stroke-width:0.26458332;stroke-opacity:1"
       id="path960-2"
       sodipodi:cx="62.789516"
       sodipodi:cy="16.660217"
       sodipodi:expansion="1"
       sodipodi:revolution="2.681601"
       sodipodi:radius="3.547534"
       sodipodi:argument="-18.064157"
       sodipodi:t0="0.55094588"
       d="m 61.225922,15.487511 c 0.599876,-1.009436 1.958648,-1.256109 2.93474,-0.65547 1.15276,0.709352 1.42937,2.276839 0.721613,3.39776 -0.818473,1.296272 -2.595185,1.602852 -3.860781,0.787758 -1.439913,-0.927362 -1.776488,-2.913641 -0.853901,-4.323803 0.822762,-1.257581 2.430792,-1.794612 3.857125,-1.359088"
       transform="matrix(0,0.67535369,-0.67535369,0,92.277843,19.827109)" />
    <path
       sodipodi:type="spiral"
       style="fill:none;fill-rule:evenodd;stroke:#007aff;stroke-width:0.17868732;stroke-opacity:1"
       id="path960-6"
       sodipodi:cx="-89.62072"
       sodipodi:cy="-57.849644"
       sodipodi:expansion="1"
       sodipodi:revolution="2.681601"
       sodipodi:radius="2.3958402"
       sodipodi:argument="-18.064157"
       sodipodi:t0="0.55094588"
       d="m -90.676699,-58.641635 c 0.405128,-0.681727 1.32278,-0.848318 1.981987,-0.442675 0.778521,0.479064 0.96533,1.537672 0.487345,2.29469 -0.55276,0.875443 -1.752669,1.082492 -2.607393,0.532015 -0.972451,-0.626297 -1.199758,-1.967738 -0.576686,-2.920095 0.555656,-0.849312 1.641645,-1.211999 2.604924,-0.917865"
       transform="scale(-1)" />
    <path
       sodipodi:type="spiral"
       style="fill:none;fill-rule:evenodd;stroke:#007aff;stroke-width:0.26458332;stroke-opacity:1"
       id="path960-1"
       sodipodi:cx="38.20435"
       sodipodi:cy="24.789612"
       sodipodi:expansion="1"
       sodipodi:revolution="2.681601"
       sodipodi:radius="3.547534"
       sodipodi:argument="-18.064157"
       sodipodi:t0="0.55094588"
       d="m 36.640755,23.616905 c 0.599876,-1.009436 1.958648,-1.256108 2.93474,-0.65547 1.15276,0.709352 1.42937,2.276839 0.721614,3.397761 -0.818474,1.296272 -2.595186,1.602852 -3.860782,0.787757 -1.439913,-0.927361 -1.776488,-2.913641 -0.853901,-4.323802 0.822762,-1.257581 2.430792,-1.794613 3.857125,-1.359088"
       transform="matrix(0,-0.67535369,0.67535369,0,77.078449,89.550958)" />
  </g>
</svg>
