<?xml version="1.0" encoding="UTF-8" standalone="no"?>
<!-- Created with Inkscape (http://www.inkscape.org/) -->

<svg
   xmlns:dc="http://purl.org/dc/elements/1.1/"
   xmlns:cc="http://creativecommons.org/ns#"
   xmlns:rdf="http://www.w3.org/1999/02/22-rdf-syntax-ns#"
   xmlns:svg="http://www.w3.org/2000/svg"
   xmlns="http://www.w3.org/2000/svg"
   xmlns:sodipodi="http://sodipodi.sourceforge.net/DTD/sodipodi-0.dtd"
   xmlns:inkscape="http://www.inkscape.org/namespaces/inkscape"
   width="203.92743mm"
   height="161.73846mm"
   viewBox="0 0 203.92743 161.73846"
   version="1.1"
   id="svg8"
   inkscape:version="0.92.4 (5da689c313, 2019-01-14)"
   sodipodi:docname="mlga.svg">
  <defs
     id="defs2">
    <inkscape:path-effect
       effect="envelope"
       id="path-effect1047"
       is_visible="true"
       yy="true"
       xx="true"
       bendpath1="m -286.87079,63.100686 c 298.218666,16.816446 465.15375,5.793969 515.19728,1.408877"
       bendpath2="m 227.28174,66.700102 c 4.62286,57.790308 -2.19334,90.797278 0,141.459928"
       bendpath3="m -282.64416,245.41805 c 274.399453,0.54841 364.365745,-5.51781 515.90171,-16.90653"
       bendpath4="m -275.59977,80.71165 c -6.96366,49.03181 -3.3795,98.06362 0.70444,147.09543"
       bendpath1-nodetypes="cc"
       bendpath3-nodetypes="cc"
       bendpath2-nodetypes="cc"
       bendpath4-nodetypes="cc" />
  </defs>
  <sodipodi:namedview
     id="base"
     pagecolor="#ffffff"
     bordercolor="#666666"
     borderopacity="1.0"
     inkscape:pageopacity="0.0"
     inkscape:pageshadow="2"
     inkscape:zoom="1.4"
     inkscape:cx="427.44061"
     inkscape:cy="288.25312"
     inkscape:document-units="mm"
     inkscape:current-layer="layer1"
     showgrid="false"
     inkscape:snap-text-baseline="true"
     inkscape:window-width="1878"
     inkscape:window-height="1016"
     inkscape:window-x="42"
     inkscape:window-y="27"
     inkscape:window-maximized="1"
     fit-margin-top="0"
     fit-margin-left="0"
     fit-margin-right="0"
     fit-margin-bottom="0" />
  <metadata
     id="metadata5">
    <rdf:RDF>
      <cc:Work
         rdf:about="">
        <dc:format>image/svg+xml</dc:format>
        <dc:type
           rdf:resource="http://purl.org/dc/dcmitype/StillImage" />
        <dc:title></dc:title>
      </cc:Work>
    </rdf:RDF>
  </metadata>
  <g
     inkscape:groupmode="layer"
     id="layer3"
     inkscape:label="Layer 3"
     style="display:inline"
     transform="translate(-4.5357147,-82.309526)">
    <path
       style="fill:#be0000;fill-opacity:1;stroke:none;stroke-width:0.26458332px;stroke-linecap:butt;stroke-linejoin:miter;stroke-opacity:1"
       d="m 33.072916,185.68601 c 11.075436,22.16031 22.486256,43.8866 41.955357,55.18452 23.242741,11.75612 57.713307,-12.91237 81.264877,-12.6622 25.80551,-1.65901 40.26791,9.94151 49.89286,4.7247 8.73191,-6.32609 -9.49472,-35.75472 -23.43452,-56.31845 z"
       id="path962"
       inkscape:connector-curvature="0"
       sodipodi:nodetypes="cccccc" />
  </g>
  <g
     inkscape:groupmode="layer"
     id="layer4"
     inkscape:label="Layer 4"
     style="display:inline"
     transform="translate(-4.5357147,-82.309526)">
    <path
       style="display:inline;fill:#e50000;fill-opacity:1;stroke:none;stroke-width:0.26458332px;stroke-linecap:butt;stroke-linejoin:miter;stroke-opacity:1"
       d="M 98.840775,85.142957 C 18.266735,92.488099 8.3119447,133.54823 4.5357147,177.55813 c 5.38399,15.56438 25.6100603,14.67374 39.6875003,19.46579 30.0491,0.049 60.098205,-0.52475 90.147315,-3.96875 18.33337,-2.02577 49.17027,0.75957 55.37352,-8.50448 l 2.26785,-7.9375 c -6.60822,-17.50991 8.79957,-88.728977 -93.171125,-91.470233 z"
       id="path968"
       inkscape:connector-curvature="0"
       sodipodi:nodetypes="ccccccc" />
  </g>
  <g
     inkscape:groupmode="layer"
     id="layer7"
     inkscape:label="Layer 6"
     transform="translate(-4.5357147,-82.309526)">
    <path
       style="fill:none;stroke:#560000;stroke-width:0.86500001;stroke-linecap:butt;stroke-linejoin:miter;stroke-miterlimit:4;stroke-dasharray:none;stroke-opacity:0.4745098"
       d="M 96.950891,85.900296 C 23.374634,109.50632 48.925358,157.34869 41.388392,196.45833"
       id="path991"
       inkscape:connector-curvature="0"
       sodipodi:nodetypes="cc" />
    <path
       style="fill:none;stroke:#560000;stroke-width:0.86500001;stroke-linecap:butt;stroke-linejoin:miter;stroke-miterlimit:4;stroke-dasharray:none;stroke-opacity:0.4745098"
       d="M 101.67559,84.577379 C 134.918,109.68845 124.91745,155.6488 133.04762,192.86756"
       id="path993"
       inkscape:connector-curvature="0"
       sodipodi:nodetypes="cc" />
    <path
       style="fill:none;stroke:#560000;stroke-width:0.86500001;stroke-linecap:butt;stroke-linejoin:miter;stroke-miterlimit:4;stroke-dasharray:none;stroke-opacity:0.4745098"
       d="m 101.67559,84.577377 c 85.98804,7.637999 77.28782,59.032013 87.3125,100.352683"
       id="path995"
       inkscape:connector-curvature="0"
       sodipodi:nodetypes="cc" />
  </g>
  <g
     inkscape:label="Layer 1"
     inkscape:groupmode="layer"
     id="layer1"
     style="display:inline"
     transform="translate(-4.5357147,-82.309526)">
    <g
       id="g929"
       transform="translate(64.946495,17.372519)">
      <g
         aria-label="MAKE          
GREAT AGAIN"
         style="font-style:normal;font-weight:normal;font-size:10.58333302px;line-height:1.25;font-family:sans-serif;letter-spacing:0px;word-spacing:0px;fill:#ffffff;fill-opacity:1;stroke:none;stroke-width:0.26458332"
         id="text882" />
      <g
         id="g14"
         style="clip-rule:evenodd;fill-rule:evenodd"
         transform="matrix(0.26828187,0,0,0.26828187,56.829426,103.3965)">
        <path
           id="path12"
           style="fill:#ffffff;fill-opacity:1"
           d="m 149.24989,98.673663 c 3.58379,4.638857 7.3138,9.149177 10.82597,13.384547 2.94589,3.5565 5.13653,5.79281 6.53985,6.68375 1.40297,0.89853 3.18362,1.33001 5.33874,1.2971 0,0.002 0.002,1.15722 0.002,1.15925 -6.99161,0.4453 -13.89859,0.88063 -20.90465,1.3118 1e-5,0.002 -0.008,-1.13785 -0.008,-1.13631 1.38619,-0.10713 2.41743,-0.29881 3.08944,-0.57309 0.49373,-0.21024 0.92027,-0.52936 1.23341,-0.92309 0.31582,-0.4004 0.47087,-0.80255 0.46708,-1.19375 -0.009,-0.48779 -0.1223,-0.96427 -0.33423,-1.40576 -0.1767,-0.33968 -0.84855,-1.20378 -2.01301,-2.6026 -2.77567,-3.37486 -5.70263,-6.93217 -8.52781,-10.50571 -3.31981,4.22609 -6.62718,8.22952 -9.98274,12.19156 -1.06197,1.26717 -1.70043,2.08756 -1.90342,2.49996 -0.2156,0.41042 -0.32068,0.83511 -0.31456,1.26265 0.009,0.65853 0.34943,1.17092 0.99354,1.56014 0.65553,0.38923 1.90035,0.56648 3.71887,0.52019 1e-5,0.001 0.0117,1.12643 0.0117,1.12763 -5.77721,0.34301 -11.53365,0.67584 -17.3142,0.99917 10e-6,7.7e-4 -0.0155,-1.12306 -0.0155,-1.12229 1.22888,-0.17295 2.27048,-0.45149 3.16328,-0.82366 1.51282,-0.63246 2.92991,-1.43288 4.21001,-2.38035 1.33405,-0.97336 2.8574,-2.44954 4.54091,-4.42707 3.78219,-4.41072 7.50205,-8.88115 11.24226,-13.65665 -3.31376,-4.13619 -6.69302,-8.583192 -10.02105,-13.485754 -2.74206,-4.012524 -5.01008,-6.924787 -6.87351,-8.30863 -1.86703,-1.394051 -3.97655,-2.138793 -6.36101,-2.187939 2.5e-4,0.01383 -0.0296,-1.718844 -0.0294,-1.70501 7.54015,-0.115872 15.07711,-0.295436 22.60271,-0.560247 2.7e-4,0.01433 0.0317,1.614008 0.032,1.628341 -1.91865,0.163651 -3.22308,0.580349 -3.92396,1.270329 -0.68853,0.687921 -1.02855,1.432866 -1.01134,2.208983 0.0232,1.048299 0.63499,2.522222 1.82729,4.361233 2.60024,4.008102 5.22838,7.699991 7.82907,11.15859 2.80076,-3.766225 5.57272,-7.678794 8.36251,-11.837011 0.96785,-1.458618 1.55872,-2.486068 1.7775,-3.030602 0.20714,-0.560991 0.3147,-1.119986 0.30022,-1.69085 -0.0145,-0.570947 -0.174,-1.068009 -0.47956,-1.490269 -0.34584,-0.541627 -0.83297,-0.946575 -1.39242,-1.15114 -0.55921,-0.21517 -1.70211,-0.284974 -3.42197,-0.230889 3.4e-4,0.01563 -0.0345,-1.612752 -0.0341,-1.597124 5.76684,-0.26356 11.52834,-0.582985 17.28423,-0.968229 4.2e-4,0.01704 0.0387,1.530557 0.0391,1.547602 -1.35806,0.18009 -2.46659,0.493273 -3.32738,0.960307 -1.27312,0.718473 -2.44031,1.650372 -3.4941,2.769919 -1.06388,1.130263 -2.51152,3.142575 -4.41435,5.974643 -3.11107,4.630245 -6.19913,8.954918 -9.32942,13.11633 z m -49.21656,-3.328899 c 0.27432,10.180636 0.21402,7.636686 0.48833,17.817326 3.46084,-0.16716 6.92069,-0.34099 10.38208,-0.52189 2.69878,-0.14105 4.48861,-0.59362 5.37252,-1.35407 1.19037,-1.00881 1.81597,-2.7048 1.89175,-5.17967 -8.2e-4,4e-5 1.28507,-0.0684 1.28425,-0.0684 0.13739,5.11053 0.24437,9.62172 0.32469,14.35721 4.3e-4,-2e-5 -1.28279,0.0719 -1.28236,0.0719 -0.35467,-1.92375 -0.7131,-3.16846 -1.04577,-3.70969 -0.43091,-0.66717 -1.132,-1.18273 -2.09075,-1.53122 -0.96103,-0.34686 -2.42679,-0.47405 -4.40169,-0.36957 -3.46072,0.18307 -6.91963,0.35955 -10.37982,0.52979 0.10975,4.56836 0.1916,8.78693 0.25415,13.2469 0.0249,1.7727 0.13356,2.8556 0.31525,3.23215 0.19303,0.37703 0.51733,0.66502 0.9829,0.87602 0.46549,0.2002 1.35482,0.26529 2.64619,0.1972 0.10676,-0.006 7.88457,-0.42049 7.99134,-0.42612 2.65596,-0.1431 4.59905,-0.40241 5.79513,-0.79376 1.20583,-0.38273 2.35028,-1.06722 3.45949,-2.06225 1.42164,-1.30306 2.88187,-3.23909 4.35712,-5.77461 0.002,-9e-5 1.38803,-0.0797 1.38968,-0.0798 -1.31352,3.41717 -2.64097,6.83709 -3.97619,10.33886 -12.21283,0.66834 -24.067746,1.30252 -36.283884,1.91399 6e-5,0.005 -0.01378,-1.11692 -0.01372,-1.11193 0.0028,-1.4e-4 1.668667,-0.0834 1.671502,-0.0836 1.101587,-0.0567 2.181583,-0.35163 3.14351,-0.85602 0.743123,-0.35574 1.236046,-0.8611 1.499585,-1.50706 0.252536,-0.65218 0.365918,-1.96144 0.335918,-3.90409 -0.145763,-9.43882 -0.344369,-16.35121 -0.651598,-27.23889 -0.08406,-2.979028 -0.433546,-4.927341 -1.06189,-5.65499 -0.861648,-0.962935 -2.263502,-1.431703 -4.217263,-1.380633 -0.0034,9e-5 -1.675153,0.04318 -1.678584,0.04327 5.25e-4,0.01969 -0.03821,-1.44736 -0.03769,-1.427667 12.146654,-0.285522 24.303061,-0.665677 36.446431,-1.194451 0.26925,3.615785 0.54574,7.077354 0.80836,10.301684 -0.001,6e-5 -1.36673,0.0729 -1.36782,0.0729 -0.5549,-2.328356 -1.13612,-3.987143 -1.75691,-4.884215 -0.62068,-0.897829 -1.51065,-1.583832 -2.68974,-2.032631 -0.93872,-0.312208 -2.58526,-0.426173 -4.93006,-0.331094 -4.32466,0.175359 -8.64959,0.334305 -12.97444,0.479044 z M 93.619149,76.167036 c 0.266074,5.217591 0.554787,9.973461 0.844257,14.311291 -0.0024,5.8e-5 -1.387377,0.03277 -1.389803,0.03283 -0.32019,-2.303996 -0.718967,-4.034647 -1.215075,-5.096601 -0.784297,-1.690211 -1.814195,-2.981978 -3.074359,-3.832387 -1.27281,-0.849761 -2.917889,-1.28534 -4.9568,-1.280081 -2.319089,0.006 -4.638945,0.0089 -6.958314,0.0093 0.335028,16.692366 0.762836,28.196576 1.028026,39.030946 0.06381,2.60693 0.431172,4.19035 1.089577,4.80594 0.93342,0.82285 2.365353,1.18737 4.271217,1.0983 3.2e-4,-1e-5 1.708435,-0.0802 1.708754,-0.0802 10e-7,3e-5 0.02179,1.13385 0.02179,1.13389 -6.567536,0.31189 -13.11381,0.60613 -19.674562,0.88395 3.83e-4,-2e-5 -1.16818,0.0494 -1.167797,0.0494 -7e-6,-3e-4 -0.02491,-1.14125 -0.02492,-1.14156 3.09e-4,-1e-5 1.167652,-0.0488 1.167961,-0.0489 -1.9e-5,0 0.576958,-0.0242 0.576938,-0.0242 2.075541,-0.0873 3.538088,-0.68934 4.378739,-1.80485 0.516867,-0.67823 0.756231,-2.20029 0.696393,-4.57999 -0.273317,-10.86958 -0.703304,-22.43975 -1.054399,-39.328579 -0.104514,-1.88e-4 -5.719789,-0.01424 -5.824303,-0.01443 -2.8e-5,0 -0.115751,-3.58e-4 -0.115779,-3.58e-4 -2.301339,-0.0071 -3.933636,0.222606 -4.894365,0.674375 -1.255104,0.620509 -2.30546,1.825581 -3.16065,3.525151 -0.853197,1.712826 -1.3299,3.958705 -1.430227,6.633419 -0.0026,2.5e-5 -1.375559,0.01325 -1.378178,0.01328 0.03768,-2.537353 0.178334,-12.737504 0.216018,-15.274857 -0.382869,-0.0046 11.058166,0.123228 10.675297,0.11863 9.864594,0.09966 19.789091,0.17648 29.644557,0.186344 z M 47.964738,107.37914 c -4.905979,0.12271 -9.812643,0.2345 -14.716001,0.33635 -0.795001,2.00601 -1.59213,3.94794 -2.391341,5.84258 -0.598028,1.39626 -0.88189,2.41196 -0.861604,3.08514 0.01583,0.5252 0.306236,0.97725 0.862622,1.3586 0.565904,0.3827 1.75795,0.60843 3.596533,0.67468 -10e-5,-0.003 0.02682,0.92754 0.02672,0.92411 -3.985556,0.11645 -7.968844,0.22574 -11.952186,0.32813 -9.4e-5,-0.003 -0.02759,-0.92723 -0.02768,-0.93041 1.577898,-0.2977 2.590815,-0.65219 3.046444,-1.07251 0.925792,-0.82781 1.938321,-2.52072 3.008456,-5.1336 4.159672,-9.99786 8.21079,-21.233444 12.341376,-36.598677 -0.0058,-7.3e-5 0.986169,0.01246 0.980408,0.01238 4.731778,15.461675 9.61435,26.642014 14.262445,36.146594 1.126741,2.30919 2.142762,3.74687 3.027211,4.38557 0.888629,0.64003 2.114333,0.97641 3.665417,1.00128 -8.9e-5,-0.003 0.02441,0.91247 0.02432,0.90917 -4.999777,0.18945 -9.996496,0.36708 -14.99424,0.53329 -9.3e-5,-0.003 -0.02552,-0.9136 -0.02561,-0.91696 1.508764,-0.11659 2.526356,-0.38157 3.050601,-0.78161 0.524781,-0.39429 0.779701,-0.87321 0.763678,-1.43288 -0.02124,-0.74179 -0.43822,-1.89181 -1.23315,-3.52281 -0.815284,-1.66697 -1.634456,-3.38013 -2.454419,-5.14842 z m -0.848093,-2.04625 c -2.303013,-5.09248 -4.639127,-10.725779 -6.965885,-17.203224 -2.031459,6.506101 -4.057114,12.219734 -6.098104,17.478664 4.353015,-0.0839 8.708972,-0.17545 13.063989,-0.27544 z m -4.715117,10.83577 c 0.001,1.6e-4 1.197502,0.19921 1.198503,0.19938 -1.273716,4.03012 -2.564924,7.90244 -3.862026,11.75104 -7.152664,0.25051 -14.286715,0.47763 -21.432891,0.68213 -5.435761,0.1561 -10.8636703,0.29938 -16.2976354,0.43069 -2.33e-5,-8.6e-4 -0.031804,-1.16232 -0.031827,-1.16317 -9.502e-4,2e-5 1.8411399,-0.0441 1.8401897,-0.0441 2.0606555,-0.0499 3.5185611,-0.67783 4.3687872,-1.87498 0.4846768,-0.69186 0.6859349,-2.26292 0.6113775,-4.74708 C 8.5182504,112.14814 7.9959021,97.292519 7.7181465,88.038056 7.5929609,84.012173 7.1788893,81.23686 6.467757,80.11936 5.482621,78.565762 4.0718003,77.749056 2.2190422,77.730315 c 0.012493,1.27e-4 -1.8619734,-0.0187 -1.84948015,-0.01857 4.4748e-4,0.01508 -0.06075,-2.06273 -0.0603026,-2.047653 0.93290991,0.01093 15.45485851,0.193048 16.38776851,0.203977 0.339219,0.0044 5.470615,0.07182 5.809834,0.07623 3.64e-4,0.01413 0.05175,1.988537 0.05211,2.002665 -2.606093,-0.06423 -4.416912,0.262231 -5.447772,0.992328 -0.111934,0.07935 -0.219849,0.16101 -0.32375,0.244952 0,0 0,0 0,0 -0.849956,0.686505 -1.430997,1.525592 -1.744136,2.501991 -0.350805,1.077422 -0.472768,3.688941 -0.357777,7.442708 0.409512,13.368102 0.614146,18.741022 1.023658,32.109122 0.05263,1.77843 0.282703,2.97168 0.681404,3.61924 0.294869,0.43562 0.74594,0.74523 1.353557,0.94404 0.115411,0.0359 0.276565,0.067 0.483523,0.0932 0.878503,0.11158 2.587463,0.13521 5.128113,0.0616 -7.03e-4,2e-5 3.557373,-0.1049 3.55667,-0.10488 3.738756,-0.11223 6.361394,-0.43204 7.856291,-0.962 1.495581,-0.52764 2.849805,-1.42802 4.067049,-2.69231 1.201754,-1.25985 2.40997,-3.26213 3.565725,-6.02839 z m 185.535162,44.61476 c 0.007,-0.78374 0.0167,-1.56407 0.0275,-2.34154 -2.69407,0.074 -5.39281,0.16218 -8.09472,0.2632 -2.70015,-0.0504 -5.40506,-0.0888 -8.11303,-0.1163 -0.008,0.7855 -0.0141,1.57499 -0.0188,2.369 7.13834,-0.14008 7.12241,3.50095 7.12889,5.60826 0.0352,11.42985 0.44237,22.79907 1.34903,36.20973 -7.5826,-12.54936 -19.38477,-32.31268 -25.87637,-42.73182 -0.62294,-0.90413 -0.69407,-0.97904 -2.02037,-0.93262 -3.95782,0.13851 -7.92523,0.29501 -11.89474,0.46597 -0.002,0.80143 -0.003,1.6086 -0.003,2.42196 -0.006,2.8e-4 2.03679,-0.0899 2.03056,-0.0897 1.05304,-0.0458 2.44659,-0.0269 3.49855,0.008 1.60947,0.16906 1.67644,0.24359 1.67937,1.74313 0.0278,14.26969 0.50725,28.739 1.71788,46.59646 0.17992,2.65403 0.52971,7.47247 -6.6525,8.3361 0.079,1.06944 0.15982,2.14398 0.24243,3.22506 -0.30103,0.0492 8.43923,-1.37403 8.1382,-1.32482 -1.37496,0.11719 9.54518,-0.81267 8.17022,-0.69548 -0.0828,-1.05606 -0.1638,-2.10507 -0.24305,-3.14877 -7.17579,0.84553 -7.52271,-3.93529 -7.70416,-6.60233 -1.20654,-17.7339 -1.68643,-32.10318 -1.71242,-46.30826 0.34947,0.38091 0.42068,0.4589 0.70076,0.9233 5.61432,9.12269 23.55653,39.22824 30.70366,51.22902 0.71834,1.10182 0.79534,1.19222 1.27956,1.13548 0.96857,-0.11351 0.90985,-0.80079 0.76126,-2.64182 -1.49761,-18.55488 -2.18674,-32.73059 -2.22862,-47.85138 -0.006,-2.10687 0.01,-5.74164 7.13386,-5.7504 0,0 0,3e-5 0,3e-5 z m -49.28384,61.56947 c -0.0826,-1.08701 -0.16334,-2.16762 -0.2423,-3.24317 -0.0386,0.005 -1.77902,0.21454 -1.81761,0.21919 -5.52303,0.66628 -5.82731,-0.46799 -6.0828,-4.20509 -1.27889,-18.70598 -1.83164,-33.98931 -1.94428,-48.77573 -0.0222,-2.90911 0.19517,-3.79629 5.73492,-4.06381 -0.005,2.6e-4 1.82848,-0.0874 1.82305,-0.0871 -0.001,-0.81596 -7.3e-4,-1.62555 8.3e-4,-2.4292 -2.39802,0.33729 -8.05674,0.61775 -10.67258,0.75143 -2.69483,0.13772 -8.3439,0.43587 -10.7646,0.33703 0.002,0.81476 0.005,1.63631 0.009,2.46506 -0.008,4.4e-4 1.83742,-0.10391 1.82985,-0.10348 5.56062,-0.31267 5.76572,0.55468 5.79071,3.47792 0.12693,14.84903 0.68232,30.30673 1.9586,49.14393 0.25469,3.75917 0.13927,4.96021 -5.40684,5.6272 0.022,-0.003 -1.84718,0.22201 -1.82513,0.21935 0.0786,1.10258 0.15902,2.20989 0.24128,3.32293 2.42402,-0.62416 7.98681,-1.31271 10.63725,-1.6416 2.73478,-0.33936 8.26034,-1.0255 10.73075,-1.01483 z m -25.65303,3.18416 c -0.0821,-1.11762 -0.16245,-2.22965 -0.24093,-3.33702 0.007,-8.4e-4 -1.2721,0.15209 -1.26503,0.15124 -4.21749,0.50388 -5.25984,-0.13879 -6.27109,-3.5776 -6.54345,-21.61925 -12.16938,-41.11749 -17.35053,-57.38187 -0.35865,-1.01133 -0.50282,-1.55192 -1.63366,-1.48427 -1.13027,0.0676 -1.34239,0.55094 -1.68836,1.68606 -4.92826,16.68395 -8.98873,35.0719 -12.66668,57.92044 -0.94138,5.69802 -3.63198,7.68694 -7.46225,8.20737 0.075,1.14981 0.15166,2.30348 0.23011,3.46143 2.40186,-0.37353 4.80164,-0.75005 7.20078,-1.12939 2.72106,-0.19032 5.44009,-0.38524 8.15789,-0.58439 -0.0802,-1.14715 -0.15861,-2.28964 -0.23523,-3.42802 -3.53548,0.39652 -5.48703,-2.17387 -5.66341,-5.00968 -0.0205,-0.32959 -0.0167,-1.42072 0.041,-1.64626 0.7969,-4.86103 1.62165,-9.58713 2.48478,-14.20472 5.82463,-0.55423 11.60825,-1.11407 17.41964,-1.67996 1.52263,5.11793 3.04093,10.20345 4.66133,15.58333 0.0983,0.41963 0.28206,1.04838 0.31079,1.47814 0.21633,3.23563 -3.72088,3.70182 -5.62899,3.92326 0.0776,1.12673 0.15707,2.2578 0.23834,3.3939 2.49862,-0.62712 7.46652,-1.22341 10.1234,-1.54457 3.08219,-0.2626 6.16126,-0.52862 9.23811,-0.79742 z m -19.87015,-25.09128 c 1.9577,-0.1845 -17.82485,1.66909 -15.86715,1.48458 2.14477,-11.36573 4.44411,-21.57645 6.96132,-31.0725 2.7909,9.03103 5.74674,18.99165 8.90583,29.58792 z m -35.795434,5.06053 c -0.04967,-1.07622 -0.09753,-2.1452 -0.14364,-3.20721 -2.872423,0.35337 -5.743325,0.70379 -8.61764,1.0512 -2.865916,0.24272 -8.812494,0.73901 -11.410785,0.63006 0.04475,1.07603 0.09112,2.15907 0.13916,3.24934 0.0053,-4.4e-4 2.261229,-0.18722 2.266546,-0.18766 6.376706,-0.53079 6.631147,0.58393 6.824682,4.52892 0.111962,2.28221 0.231215,4.58889 0.358068,6.92226 0.67366,12.39145 -8.1794,14.33381 -10.216153,14.5257 -1.791154,0.16875 -5.029942,-0.12821 -8.447998,-2.52492 -5.371054,-3.76513 -11.30025,-13.07374 -11.95591,-32.08396 -0.637997,-18.49808 4.72879,-25.80388 9.705842,-29.16656 3.088417,-2.08835 6.153567,-2.66041 7.758821,-2.75405 7.595627,-0.44307 14.064488,6.41151 15.864195,20.13404 0.180623,1.32529 0.190006,1.61535 1.180038,1.54077 1.132684,-0.0853 1.120968,-0.37726 1.064029,-2.37284 -0.214119,-7.50432 -0.339006,-14.44082 -0.411737,-20.93816 -0.01556,-1.39029 -0.0201,-1.9526 -0.799508,-1.90597 -0.281348,0.0168 -0.568664,0.0328 -1.123152,1.04119 -1.159394,2.08081 -2.31163,4.21054 -3.458945,6.3967 -2.343283,-2.63531 -6.151434,-6.79893 -13.196208,-6.39795 -2.387643,0.1359 -4.721614,0.69001 -6.928314,1.61704 0,0 -2e-6,0 -2e-6,0 -9.96001,4.18124 -17.54544,16.0072 -16.960251,33.29174 0.586869,17.33415 9.042112,32.5379 19.564229,36.68849 0,0 2e-6,0 2e-6,0 2.335655,0.92141 4.765328,1.30153 7.228507,1.0677 5.213614,-0.49492 10.665361,-4.03944 12.69014,-10.87091 1.066497,2.35431 4.193923,6.57322 4.978149,6.49224 0.639079,-0.066 0.57852,-0.96843 0.470749,-2.65106 -0.41792,-6.52499 -0.777585,-12.85591 -1.083807,-19.04473 -0.204337,-4.12971 0.06731,-4.66093 4.660893,-5.07141 z m -51.201548,31.13969 c -2e-5,-3.6e-4 -0.194723,-3.54846 -0.194743,-3.54882 7.06e-4,-5e-5 -1.284047,0.0956 -1.283341,0.0956 -4.277126,0.31675 -5.322873,-0.42583 -6.294429,-4.12134 -6.634133,-24.49251 -11.636197,-43.58044 -17.300262,-61.75905 -0.370033,-1.0708 -0.520623,-1.64039 -1.654928,-1.59468 -0.179025,0.007 -0.334937,0.0258 -0.471881,0.0566 -0.731517,0.16452 -0.923707,0.67667 -1.207783,1.67403 -4.821367,17.48703 -8.8985614,36.78097 -13.02918,60.47499 -1.0483159,5.87223 -3.81100083,7.7457 -7.6763517,8.02334 -9.31e-5,-0.002 0.1575884,3.58545 0.1574953,3.5833 2.42782578,-0.21878 4.854749,-0.44327 7.2816971,-0.67358 2.7476327,-0.0134 5.494475,-0.0344 8.2416183,-0.063 -6.2e-5,-0.001 -0.168726,-3.57407 -0.168788,-3.57536 -3.57497,0.1862 -5.4909848,-2.61242 -5.6173959,-5.57452 -0.014673,-0.34382 0.00856,-1.48225 0.070574,-1.71344 0.8884443,-5.02226 1.7881954,-9.92923 2.7123215,-14.74611 3.4740318,-0.16281 6.9454188,-0.33602 10.4179788,-0.51967 2.386206,-0.12608 4.771544,-0.25745 7.157216,-0.39403 2.014704,7.49182 2.493018,9.29159 4.507722,16.7834 0.09305,0.44906 0.268922,1.12325 0.291233,1.5786 0.167974,3.42822 -3.822885,3.68574 -5.753418,3.80438 -4e-5,-8e-4 0.179406,3.56707 0.179366,3.56626 2.5091,-0.49702 7.5999,-0.83739 10.26691,-1.02248 3.123992,-0.10131 6.246256,-0.21289 9.368369,-0.33444 z M 26.365953,208.97344 c -2.12402,0.11857 -4.247779,0.23311 -6.372168,0.34357 -3.210126,0.16709 -6.419275,0.32549 -9.630629,0.47524 2.281303,-11.89249 4.609932,-22.62096 7.099794,-32.59482 0.590965,1.99366 1.184741,4.02655 1.783752,6.10413 2.317855,8.04891 4.639486,16.50514 7.119251,25.67188 z m -59.551684,-17.65327 c -0.614489,-7.42666 -1.175793,-14.19709 -1.729967,-20.65607 -14.547784,0.30305 -28.816065,0.48702 -43.332136,0.59612 -0.355021,6.43048 -0.691909,13.24483 -1.010357,20.62371 -0.0029,1e-5 1.775513,-0.007 1.772637,-0.007 0.687667,-15.34429 1.797215,-17.94835 12.459204,-18.06317 1.274463,-0.0137 3.121348,-0.0347 3.831576,0.13104 1.49484,0.33148 1.509467,1.2886 1.542959,3.34167 0.260997,15.99937 0.63097,33.94341 1.250955,54.46722 0.117511,3.89005 0.172723,5.54214 -7.331691,5.56261 -0.003,1e-5 -2.854453,0.005 -2.857466,0.005 -2.1e-4,-0.007 0.108107,3.60142 0.107897,3.59433 2.821252,-0.33987 10.311725,-0.38691 13.503846,-0.41537 3.181967,-0.0284 10.766836,-0.11596 13.605778,0.17131 -1.69e-4,-0.005 -0.128498,-3.58951 -0.128667,-3.59416 -0.0019,3e-5 -2.85827,0.0465 -2.860182,0.0465 -7.506451,0.1155 -7.56284,-1.53835 -7.68516,-5.42819 -0.645768,-20.53564 -1.027212,-38.47941 -1.291935,-54.49297 -0.02958,-1.7896 -0.04879,-3.01138 1.222584,-3.3798 0.775628,-0.1858 2.695193,-0.21559 4.041423,-0.23744 10.71341,-0.17392 11.814233,2.39362 13.112457,17.77212 -8.97e-4,1e-5 1.777142,-0.0385 1.776245,-0.0384 z m -44.013183,49.58364 c -2.3e-4,-0.008 -0.100932,-3.58486 -0.101162,-3.59292 -7.27e-4,0 -1.284277,-0.005 -1.285004,-0.005 -4.283182,-0.0188 -5.303849,-0.84694 -6.184824,-4.63724 -6.009209,-25.03413 -10.887967,-44.55374 -16.497866,-62.89528 -0.36865,-1.08806 -0.51924,-1.66543 -1.64969,-1.66139 -1.13014,0.004 -1.33644,0.49951 -1.67233,1.67197 -4.78814,17.27176 -9.05885,36.21239 -13.68919,59.32658 -1.17768,5.75513 -3.97618,7.4233 -7.81767,7.43739 -3.7e-4,-0.0215 0.0636,3.5895 0.0633,3.568 2.41532,-0.0501 4.83132,-0.10369 7.24855,-0.16106 2.73029,0.18139 5.46124,0.35832 8.1946,0.53051 -3.1e-4,-0.0144 -0.0749,-3.56504 -0.0752,-3.57949 -3.56006,-0.0712 -5.39326,-2.99268 -5.44902,-5.93949 -0.006,-0.34199 0.0433,-1.47107 0.11008,-1.69577 0.99811,-4.92005 1.99484,-9.72767 3.00011,-14.43792 5.83938,0.0848 11.67228,0.15341 17.522192,0.20208 1.373173,5.57986 2.739961,11.2485 4.14466,17.11931 0.08209,0.45751 0.241197,1.14629 0.252303,1.60501 0.08357,3.45165 -3.907678,3.40575 -5.83302,3.37934 -2.67e-4,-0.0113 0.0862,3.59798 0.08593,3.58672 2.528109,-0.30814 7.585394,-0.25362 10.267615,-0.22978 3.120907,0.14387 6.242148,0.28019 9.365702,0.40861 z m -19.130431,-29.2222 c -5.325455,-0.0411 -10.636885,-0.0979 -15.953625,-0.16743 2.46709,-11.63127 4.89221,-22.16219 7.41036,-31.99909 2.84025,9.86108 5.609785,20.3912 8.543265,32.16652 z m -34.537925,-0.35119 c -0.007,-1.3e-4 -1.75961,-0.0317 -1.76682,-0.0319 -1.55173,16.50375 -2.99187,25.00502 -15.21248,24.5977 -3.1398,-0.10465 -6.27548,-0.21326 -9.41018,-0.32525 -3.32221,-0.1187 -3.47127,-0.92562 -3.5097,-4.62726 0.0485,4.66966 -0.35204,-33.05848 -0.30355,-28.38883 0.73014,0.0113 5.59828,0.0872 6.32841,0.0985 6.82613,0.10655 7.64259,3.28587 7.75673,12.28167 -0.011,-2.5e-4 1.77508,0.0401 1.76406,0.0399 -0.13263,-10.24842 -0.20982,-16.35446 -0.34245,-26.60288 0.0519,3.5e-4 -1.81085,-0.012 -1.75898,-0.0116 0.10494,8.1472 -0.63139,11.28904 -7.45624,11.1968 0.73064,0.01 -7.05703,-0.0947 -6.32639,-0.0848 0.003,0.22702 -0.27256,-22.43801 -0.26997,-22.21099 -0.037,-2.83415 0.0946,-3.4186 3.39345,-3.42818 0.27678,-8.1e-4 8.78475,-0.0183 9.06153,-0.0191 10.74041,-0.0153 12.74473,4.48894 14.03058,17.57401 -0.0274,-2.3e-4 1.78987,0.0145 1.76248,0.0142 -0.76037,-7.22846 -1.50217,-13.90762 -2.2498,-20.22312 -13.12019,0.0174 -26.49288,0.0474 -39.5334,0.16255 -6e-5,-0.005 0.0349,2.57958 0.0349,2.57503 0.006,-4e-5 1.67431,-0.0119 1.6802,-0.0119 5.39284,-0.0368 5.54686,0.8832 5.58673,3.97567 0.20445,15.85447 0.36983,31.80187 0.55619,52.06566 0.0369,4.01586 -0.0935,5.26325 -5.52354,5.05324 -0.009,-3.4e-4 -1.68264,-0.0653 -1.69142,-0.0656 5.7e-4,0.0755 0.0258,3.4257 0.0264,3.50122 13.60173,0.5562 27.14327,1.06188 40.84244,1.47084 0.83658,-9.933 1.67211,-19.44165 2.53085,-28.57552 z m -46.07506,17.16345 c -0.005,-0.66226 -0.0139,-1.86588 -0.92788,-1.89678 -0.77326,-0.0262 -0.76606,0.95737 -0.83099,1.72507 -0.36947,7.85024 -2.81752,9.81134 -4.58002,9.73689 -3.45722,-0.14603 -4.02845,-5.9859 -5.07576,-16.01476 -0.32091,-2.85939 -0.64177,-5.66423 -0.96422,-8.42409 -1.29928,-6.60067 -4.76489,-9.8674 -8.60883,-11.73631 6.75049,-2.26859 12.14924,-8.15625 12.06953,-15.21291 -0.0983,-8.69984 -8.16114,-15.36207 -18.39447,-15.12763 -7.28147,0.16682 -14.5578,0.38234 -21.80414,0.66324 -3.1e-4,-0.0202 0.0372,2.50526 0.0369,2.48503 0.003,-1.1e-4 1.65969,-0.0601 1.66263,-0.0602 5.33692,-0.1895 5.49109,0.708 5.53022,3.67593 0.19866,15.06439 0.31325,30.59689 0.30585,49.80323 -0.001,3.84617 -0.14563,5.03612 -5.50803,4.82867 0.009,3.6e-4 -1.67969,-0.0648 -1.67024,-0.0644 -4e-5,0.0138 -0.0107,3.33716 -0.0108,3.35097 2.51523,-0.2209 7.44754,-0.0105 10.18036,0.10699 2.72022,0.117 7.68779,0.3313 10.20782,0.77449 2e-5,0.0213 -0.004,-3.44439 -0.004,-3.42307 0.0346,0.001 -1.71332,-0.0695 -1.67875,-0.0681 -5.38337,-0.21809 -5.51924,-1.43352 -5.522,-5.30047 -0.007,-9.11574 -0.036,-17.5032 -0.0897,-25.65431 2.66475,0.009 5.33301,0.0233 8.00292,0.0417 1.09724,0.008 4.05799,0.0167 6.50773,3.38672 2.67624,3.59211 2.70176,6.73749 2.73757,13.73581 0.0352,6.8763 0.0472,11.25383 2.94063,15.60666 2.90691,4.15043 6.75372,5.01281 8.88037,5.10588 5.49933,0.24065 6.62914,-9.03433 6.60688,-12.04427 z m -16.10984,-41.79811 c 0.0683,6.15117 -1.53865,13.93785 -11.85763,13.89308 -2.57645,-0.0112 -5.15132,-0.0182 -7.72299,-0.0203 -0.0585,-8.2005 -0.13918,-15.78996 -0.23418,-22.99845 -0.0251,-1.90867 -0.0393,-2.88671 1.48615,-3.17115 0.69596,-0.1821 2.70504,-0.23133 4.09973,-0.26355 6.24697,-0.14431 14.08841,-0.102 14.22892,12.56034 z m -38.54737,24.46323 c -1e-5,-0.005 -0.009,-2.98366 -0.009,-2.98883 -2.81396,0.0928 -5.62509,0.1915 -8.43237,0.29685 -2.68494,0.0103 -8.70034,0.0473 -11.09755,-0.19161 -2e-5,-0.006 0.003,2.89624 0.003,2.89022 0.006,-4e-5 2.1976,-0.0136 2.20311,-0.0136 6.20091,-0.0334 6.41499,1.02383 6.41298,4.60911 -0.001,2.08147 -0.005,4.18954 -0.0112,6.33265 -0.0337,11.46863 -8.86554,12.16069 -10.77843,12.09428 -2.284,-0.0793 -6.72665,-1.17372 -10.67908,-5.86942 -3.9311,-4.67036 -7.2033,-12.75345 -7.26117,-25.64744 -0.0571,-12.72654 3.14969,-19.43492 7.00332,-23.34509 3.82614,-3.88229 8.23857,-4.8278 10.29855,-4.96446 7.33948,-0.48689 13.78713,6.1034 15.26912,18.86712 0.14912,1.22743 0.15019,1.49376 1.11716,1.47064 1.10433,-0.0264 1.10325,-0.29469 1.0866,-2.14358 -0.0625,-6.94345 -0.149,-13.47162 -0.24757,-19.7274 -0.0211,-1.34181 -0.0304,-1.88864 -0.79024,-1.85037 -0.27556,0.0139 -0.55344,0.0274 -1.08989,0.99697 -1.12025,1.9976 -2.23919,4.01803 -3.36031,6.06651 -2.2679,-2.49928 -6.01592,-6.50764 -12.852,-6.03514 -6.39176,0.44179 -12.31094,3.97015 -16.57918,9.44131 -4.27746,5.48296 -6.92504,12.91392 -6.8861,21.56728 0.0388,8.62156 2.71607,16.91264 7.01452,23.28953 4.30787,6.39085 10.25014,10.83005 16.81965,11.09185 5.05574,0.20148 10.59128,-2.3472 12.99392,-8.44081 0.87382,2.26986 3.6484,6.66188 4.39837,6.69217 0.62443,0.0252 0.62981,-0.8346 0.63815,-2.42996 0.0324,-6.19375 0.048,-12.0602 0.0461,-17.79586 -0.001,-3.80682 0.26935,-4.28839 4.76874,-4.26288 z m 205.466089,-98.23388 c -0.0025,3e-5 -1.777378,0.0184 -1.779877,0.0184 -0.69775,5.37082 -1.449329,9.0564 -3.527609,11.48801 -2.078303,2.43164 -5.526513,3.64183 -11.631145,3.71813 -0.06669,8.3e-4 -9.383061,0.10817 -9.449753,0.109 -3.338593,0.0354 -3.492853,-0.40912 -3.560089,-2.52942 -0.18223,-5.74667 -0.388903,-11.66933 -0.636788,-18.41847 -0.04805,2.1e-4 6.446624,-0.0302 6.398579,-0.03 6.897352,-0.0345 7.775534,2.44859 7.979608,8.37283 -0.0026,2e-5 1.780658,-0.0158 1.778075,-0.0158 -0.211348,-6.14792 -0.447245,-12.60322 -0.734086,-20.437526 -0.02418,4.3e-5 -1.756483,0.0031 -1.780662,0.0032 0.271017,7.371102 -0.430142,9.668632 -7.329944,9.698422 -0.05255,2.3e-4 -6.346971,0.0257 -6.399519,0.026 -0.05615,-1.51432 -0.75571,-19.89266 -0.811856,-21.406986 -0.131546,-3.430367 -0.0195,-4.214549 3.331449,-4.210235 0.036,4.7e-5 9.165375,0.01902 9.201372,0.01906 10.959413,0.03116 13.034119,6.391972 14.644349,18.517574 -0.0079,2.6e-5 1.789633,-0.0059 1.781709,-0.0059 -0.889545,-6.325438 -1.811092,-13.472247 -2.763826,-21.854282 -13.532068,-0.08743 -26.686965,-0.120901 -40.170685,-0.09427 3.17e-4,0.0078 0.138094,3.413753 0.138411,3.421566 -3.02e-4,0 1.708664,-0.0027 1.708362,-0.0027 5.482752,-0.0079 5.673903,1.218258 5.81901,4.926278 0.687025,17.556035 1.154987,29.937445 1.512702,41.094235 0.07437,2.31955 -0.0477,3.02519 -5.5111,3.06821 -0.0033,3e-5 -1.699421,0.0131 -1.702672,0.0132 -4.6e-5,-0.002 0.06086,1.98258 0.06081,1.98108 13.686751,-0.10984 27.265111,-0.26432 40.987153,-0.48826 0.836527,-5.42445 1.661431,-10.95793 2.448023,-16.98124 z m -48.707665,17.50962 c -3.8e-5,-0.001 -0.06108,-1.982 -0.06112,-1.98325 -3.82001,0.026 -5.333198,-0.21754 -7.542016,-3.0528 -5.68392,-7.32067 -11.443424,-15.08848 -17.251679,-24.37878 4.054733,-4.746872 8.098738,-9.924896 12.112282,-15.722514 0.257913,-0.388564 1.296485,-1.904311 2.957607,-3.353897 1.666687,-1.454442 3.996696,-2.877128 6.871282,-2.939629 6.61e-4,0.01601 -0.142864,-3.448736 -0.142203,-3.432721 -1.832393,0.344772 -4.116115,0.353749 -6.032133,0.362604 -2.550932,0.01179 -6.619621,0.03361 -9.039655,-0.287159 0.001,0.02343 0.148409,3.397164 0.149439,3.420594 2.845142,0.09285 3.377081,2.572108 3.4157,3.480817 0.07039,1.656174 -0.597354,2.660529 -1.135453,3.359295 -6.96274,9.918448 -14.057658,18.06911 -21.136258,25.33546 -0.28301,-7.55984 -0.64845,-16.605627 -1.12241,-27.137049 -0.1658,-3.683932 -0.0838,-4.899779 5.37019,-4.941774 -0.004,3e-5 1.70415,-0.01292 1.70028,-0.01289 0.001,0.02593 -0.15629,-3.429287 -0.15512,-3.403359 -2.45032,0.35631 -7.72313,0.40852 -10.39531,0.436629 -2.67957,0.02819 -8.0017,0.08678 -10.47894,-0.214041 0.001,0.02736 0.1617,3.33624 0.16304,3.363601 -0.009,9.3e-5 1.70417,-0.01668 1.69479,-0.01659 5.43938,-0.05284 5.64072,1.152903 5.80862,4.82852 0.77131,16.885366 1.2823,30.716546 1.63184,41.438306 0.0765,2.34637 -0.0443,3.05521 -5.47759,3.06926 -0.0304,7e-5 -1.66263,0.004 -1.69305,0.004 7e-5,0.002 0.0622,1.99996 0.0623,2.00205 2.45932,-0.20049 7.68824,-0.21654 10.36964,-0.22525 2.67577,-0.009 7.9911,-0.0268 10.4649,0.15571 1e-5,4.2e-4 -0.0622,-1.99443 -0.0622,-1.99401 -0.008,3e-5 -1.68844,0.006 -1.69689,0.006 -5.44308,0.0187 -5.60479,-0.68899 -5.68131,-3.03265 -0.12369,-3.7887 -0.26026,-7.73795 -0.41187,-11.87366 2.63425,-2.61377 5.26875,-5.33198 7.89065,-8.18927 4.531772,6.94272 9.034497,13.0664 13.493566,18.88456 0.444354,0.58705 1.109379,1.43123 1.13435,2.20747 0.06232,1.93721 -2.700854,1.94871 -4.115883,1.95509 -8e-6,-2.7e-4 0.06193,1.99046 0.06192,1.99019 2.459415,-0.20337 7.440558,-0.23098 10.121596,-0.24713 -0.09378,-0.002 8.250891,0.13965 8.157116,0.13801 z m -54.379674,0.23878 c 7e-5,0.003 -0.0623,-2.00664 -0.0622,-2.0041 -0.0885,2.2e-4 -1.18026,0.003 -1.26878,0.003 -4.22661,0.0105 -5.22932,-0.43813 -6.0711,-2.5931 -5.59678,-13.85943 -11.01146,-28.197167 -17.3273,-51.172218 -0.4283,-1.427518 -0.61048,-2.216849 -1.73499,-2.197769 -1.12508,0.01909 -1.29538,0.701623 -1.56511,2.246635 -3.59178,21.432481 -8.13134,36.408122 -12.44312,49.408812 -1.14945,3.39308 -3.93694,4.38773 -7.70665,4.47571 3e-4,0.0102 0.0592,2.02909 0.0595,2.03929 0.0998,-0.003 7.03645,-0.23879 7.13621,-0.24225 0.14949,0.003 7.9189,0.1506 8.0684,0.15338 2e-4,0.007 -0.061,-2.03136 -0.0608,-2.0244 -3.50734,0.014 -5.30817,-1.61416 -5.36168,-3.34243 -0.006,-0.19847 0.0433,-0.86503 0.10911,-0.9985 0.98113,-2.90793 1.96365,-5.8921 2.92971,-8.96703 -2.2833,-0.002 19.61997,0.0115 17.33668,0.01 1.3686,3.5886 2.72582,7.01213 4.07587,10.3605 0.0787,0.26264 0.23202,0.65594 0.24031,0.91766 0.0621,1.95814 -3.87913,1.96781 -5.77612,1.97342 1.5e-4,0.005 0.0614,2.00974 0.0616,2.01449 2.52954,-0.2041 7.44431,-0.21953 10.12538,-0.2277 2.38058,0.0428 6.8545,0.1236 9.23508,0.16643 z m -18.814,-17.4077 c -0.36845,-2.7e-4 -15.42251,-0.0149 -15.79095,-0.0151 2.32528,-7.73634 4.63411,-16.403905 6.73879,-26.785561 3.15166,10.448404 6.11119,18.991231 9.05216,26.800691 z m -34.26962,17.65117 c 3.4e-4,0.012 -0.0594,-2.05725 -0.059,-2.04523 0.005,-3e-5 -1.68232,0.0115 -1.67749,0.0114 -5.3797,0.0374 -5.53806,-0.68365 -5.60853,-3.09749 -0.31298,-10.72103 -0.76934,-25.43547 -1.56012,-41.204575 -0.17539,-3.497564 -0.1043,-4.628217 5.25942,-4.663943 0.007,-4.9e-5 1.66499,-0.01141 1.67234,-0.01146 -0.0559,-1.049684 -0.11382,-2.117302 -0.17395,-3.202826 -3.92337,0.03968 -7.84919,0.07428 -11.7594,0.101377 -1.80992,0.01254 -1.79487,0.121211 -2.18363,1.963751 -3.92344,18.59167 -8.85405,33.007515 -13.44263,45.609165 -5.60577,-13.36993 -10.51752,-26.316936 -16.66654,-45.379762 -0.74033,-2.193504 -0.94241,-2.199726 -2.52493,-2.216206 -3.86783,-0.04028 -7.7309,-0.09608 -11.58219,-0.17048 0.0563,1.02905 0.11011,2.045723 0.16151,3.049738 0.003,7e-5 1.6392,0.03342 1.64253,0.03349 5.2719,0.104093 5.47546,1.178672 5.63691,4.593096 0.68766,14.543431 1.03578,29.306417 1.29168,40.038547 0.0458,1.92306 0.1218,5.18619 -6.99308,5.35015 -0.003,-0.13204 0.0522,2.30981 0.0492,2.17777 2.69092,-0.14177 5.38515,-0.27781 8.08123,-0.40861 2.69984,0.008 5.40158,0.0191 8.1066,0.0338 0.002,0.0995 -0.0551,-2.22628 -0.0527,-2.12679 -7.13404,0.12241 -7.20921,-3.12046 -7.25583,-5.05022 -0.27636,-11.43747 -0.65916,-27.571238 -1.48873,-43.704328 1e-5,0 0.0686,0.001 0.0686,0.001 6.81607,21.015882 12.0571,34.438442 18.3345,49.214272 0.37013,0.8773 0.7332,1.47948 1.42798,1.46835 0.76426,-0.0122 0.95881,-0.55539 1.21722,-1.30345 5.11532,-13.79445 10.83979,-29.55024 15.23456,-50.002179 10e-6,0 0.0694,-2.48e-4 0.0694,-2.48e-4 0.95426,17.792424 1.44868,34.298367 1.77955,45.845747 0.0694,2.42247 -0.0513,3.14979 -5.41667,3.20548 0.004,-4e-5 -1.67508,0.0177 -1.6715,0.0177 6e-4,0.0217 0.0559,2.0543 0.0565,2.07604 2.59147,-0.23493 7.29025,-0.28532 10.03321,-0.31252 2.74001,-0.0272 7.38166,-0.069 9.99388,0.10946 0,0 7e-5,0 7e-5,0 z"
           inkscape:connector-curvature="0"
           inkscape:path-effect="#path-effect1047"
           inkscape:original-d="m 161.217,87.709 10.832,16.14 c 2.996,4.469 5.219,7.289 6.68,8.471 1.447,1.18 3.289,1.828 5.523,1.955 v 1.371 h -21.65 v -1.371 c 1.434,-0.025 2.502,-0.178 3.199,-0.457 a 3.051,3.051 0 0 0 1.283,-1.016 c 0.33,-0.457 0.494,-0.928 0.494,-1.398 a 4.8,4.8 0 0 0 -0.33,-1.713 c -0.178,-0.42 -0.863,-1.512 -2.043,-3.275 l -8.561,-12.941 -10.564,13.537 c -1.117,1.447 -1.791,2.4 -2.006,2.883 -0.229,0.482 -0.344,0.99 -0.344,1.51 0,0.801 0.344,1.449 1.004,1.969 0.672,0.521 1.955,0.826 3.834,0.902 v 1.371 h -17.893 v -1.371 c 1.271,-0.127 2.35,-0.395 3.277,-0.787 a 18.931,18.931 0 0 0 4.381,-2.604 c 1.396,-1.092 2.984,-2.77 4.762,-5.029 l 11.912,-15.022 -9.932,-14.553 c -2.705,-3.937 -5.002,-6.527 -6.883,-7.746 -1.891,-1.232 -4.062,-1.879 -6.514,-1.956 v -1.384 h 23.328 v 1.384 c -1.982,0.077 -3.34,0.394 -4.076,0.965 -0.725,0.571 -1.092,1.207 -1.092,1.892 0,0.927 0.596,2.26 1.777,4.025 l 7.746,11.569 8.965,-11.353 c 1.041,-1.333 1.676,-2.248 1.918,-2.743 0.229,-0.508 0.355,-1.016 0.355,-1.537 0,-0.521 -0.152,-0.978 -0.457,-1.372 a 2.9,2.9 0 0 0 -1.41,-1.092 c -0.572,-0.216 -1.752,-0.33 -3.529,-0.356 v -1.384 h 17.891 v 1.384 c -1.408,0.077 -2.564,0.292 -3.465,0.661 -1.334,0.571 -2.566,1.346 -3.684,2.311 -1.118,0.965 -2.691,2.756 -4.725,5.359 z m -50.571,-6.034 v 19.258 h 10.709 c 2.785,0 4.637,-0.418 5.568,-1.252 1.252,-1.104 1.939,-3.041 2.086,-5.826 h 1.324 v 16.965 h -1.324 c -0.332,-2.367 -0.674,-3.889 -1.006,-4.564 -0.43,-0.832 -1.141,-1.496 -2.121,-1.975 -0.982,-0.477 -2.49,-0.723 -4.527,-0.723 h -10.709 v 16.068 c 0,2.158 0.1,3.473 0.283,3.938 0.195,0.467 0.527,0.834 1.006,1.117 0.479,0.27 1.398,0.404 2.734,0.404 h 8.268 c 2.748,0 4.76,-0.184 6,-0.576 1.25,-0.381 2.439,-1.129 3.594,-2.258 1.484,-1.484 3.004,-3.729 4.562,-6.723 h 1.436 l -4.195,12.219 h -37.56 v -1.324 h 1.73 a 6.837,6.837 0 0 0 3.262,-0.834 c 0.773,-0.381 1.289,-0.957 1.57,-1.719 0.27,-0.771 0.404,-2.342 0.404,-4.709 v -31.66 c 0,-3.091 -0.305,-4.992 -0.932,-5.716 -0.859,-0.957 -2.293,-1.436 -4.305,-1.436 h -1.73 v -1.337 h 37.56 l 0.539,10.672 h -1.41 c -0.504,-2.563 -1.055,-4.318 -1.668,-5.274 -0.613,-0.957 -1.51,-1.693 -2.711,-2.196 -0.957,-0.355 -2.65,-0.539 -5.066,-0.539 z m -6.167,-16.667 0.562,11.921 h -1.432 c -0.27,-2.098 -0.641,-3.594 -1.127,-4.502 -0.768,-1.445 -1.803,-2.507 -3.082,-3.198 -1.291,-0.69 -2.98,-1.036 -5.077,-1.036 H 87.16 v 38.833 c 0,3.121 0.345,5.064 1.011,5.846 0.946,1.049 2.417,1.572 4.387,1.572 h 1.766 v 1.381 H 72.771 v -1.381 h 1.804 c 2.148,0 3.671,-0.652 4.566,-1.957 0.55,-0.793 0.832,-2.621 0.832,-5.461 V 68.193 h -6.114 c -2.366,0 -4.055,0.179 -5.052,0.524 -1.304,0.474 -2.417,1.395 -3.338,2.737 -0.921,1.355 -1.471,3.172 -1.649,5.475 H 62.4 L 63.001,65.008 Z M 56.631,92.346 H 41.439 l -2.657,6.193 c -0.662,1.521 -0.987,2.658 -0.987,3.418 0,0.594 0.286,1.117 0.849,1.57 0.573,0.455 1.797,0.752 3.694,0.889 v 1.068 H 29.98 v -1.068 c 1.64,-0.295 2.697,-0.67 3.181,-1.135 0.988,-0.92 2.075,-2.805 3.27,-5.641 L 50.24,65.349 h 1.008 l 13.661,32.637 c 1.097,2.627 2.094,4.326 2.993,5.107 0.899,0.779 2.153,1.225 3.753,1.322 v 1.068 H 56.167 v -1.068 c 1.561,-0.078 2.618,-0.346 3.171,-0.789 0.553,-0.436 0.83,-0.979 0.83,-1.621 0,-0.848 -0.396,-2.182 -1.166,-4.02 z m -0.81,-2.144 -6.658,-15.854 -6.826,15.854 z m -5.203,11.609 1.231,0.268 -4.314,13.678 H 8.504 v -1.371 h 1.903 c 2.132,0 3.654,-0.697 4.568,-2.08 0.521,-0.799 0.774,-2.641 0.774,-5.508 V 74.263 c 0,-3.146 -0.343,-5.113 -1.041,-5.9 -0.964,-1.091 -2.398,-1.637 -4.301,-1.637 H 8.504 v -1.383 h 22.827 v 1.383 c -2.677,-0.025 -4.555,0.216 -5.634,0.736 -1.078,0.52 -1.814,1.18 -2.208,1.979 -0.393,0.786 -0.596,2.689 -0.596,5.685 v 31.67 c 0,2.057 0.203,3.465 0.596,4.238 0.292,0.521 0.749,0.9 1.371,1.154 0.621,0.242 2.55,0.369 5.798,0.369 h 3.68 c 3.87,0 6.585,-0.279 8.146,-0.852 1.561,-0.57 2.982,-1.586 4.276,-3.031 1.282,-1.445 2.576,-3.742 3.858,-6.863 z m 193.20613,58.04911 v -2.28275 l -8.61556,0.22104 -8.61557,-0.22104 v 2.28275 c 7.58464,0 7.58464,3.46095 7.58464,5.44916 v 31.44312 l -25.99397,-38.21775 c -0.66274,-0.88366 -0.73635,-0.95728 -2.13548,-0.95728 h -12.51833 v 2.28275 h 2.13548 c 1.10455,0 2.57729,0.0734 3.68184,0.14724 1.69367,0.22103 1.76732,0.29446 1.76732,1.69366 v 38.43868 c 0,1.98821 0,5.44916 -7.58464,5.44916 v 2.28274 l 8.61557,-0.22103 8.61557,0.22103 v -2.28274 c -7.58468,0 -7.58468,-3.46095 -7.58468,-5.44916 v -38.29141 c 0.36827,0.36827 0.44185,0.44181 0.73639,0.88363 l 30.04404,44.18241 c 0.66273,0.88362 0.73635,0.95727 1.25182,0.95727 1.03093,0 1.03093,-0.51546 1.03093,-1.91455 v -40.64781 c 0,-1.9882 0,-5.44915 7.58463,-5.44915 z m -54.81034,48.01152 v -2.28275 h -1.91455 c -5.81735,0 -6.03828,-0.81 -6.03828,-3.46095 v -38.80687 c 0,-2.65094 0.22104,-3.46095 6.03828,-3.46095 h 1.91455 v -2.28275 c -2.57729,0.22104 -8.39464,0.22104 -11.19285,0.22104 -2.87187,0 -8.68922,0 -11.26651,-0.22104 v 2.28275 h 1.91455 c 5.81736,0 6.03828,0.81001 6.03828,3.46095 v 38.80687 c 0,2.65095 -0.22104,3.46095 -6.03828,3.46095 h -1.91455 v 2.28275 c 2.57729,-0.22103 8.39464,-0.22103 11.19285,-0.22103 2.87187,0 8.68922,0 11.26651,0.22103 z m -26.95124,0 v -2.28275 h -1.32549 c -4.41824,0 -5.44916,-0.51546 -6.25917,-2.94548 l -15.90566,-46.02335 c -0.36819,-0.95728 -0.51546,-1.47274 -1.69366,-1.47274 -1.1782,0 -1.39911,0.44185 -1.76729,1.47274 l -15.24293,44.03514 c -1.32547,3.75549 -4.27096,4.86004 -8.24738,4.93369 v 2.28275 l 7.51101,-0.22103 8.46829,0.22103 v -2.28275 c -3.68187,0 -5.5228,-1.84093 -5.5228,-3.75552 0,-0.22104 0.0737,-0.95728 0.14727,-1.10455 l 3.38732,-9.6465 h 18.18841 l 3.90278,11.26651 c 0.0736,0.29447 0.22093,0.73639 0.22093,1.03093 0,2.20913 -4.12369,2.20913 -6.1119,2.20913 v 2.28275 c 2.65094,-0.22103 7.80556,-0.22103 10.60377,-0.22103 z m -19.07208,-19.07207 h -16.5684 l 8.24738,-23.9321 z m -37.41924,1.25186 v -2.28279 l -8.983753,0.22104 c -2.945491,0 -9.204662,0 -11.855609,-0.22104 v 2.28279 h 2.356395 c 6.627358,0 6.848271,0.81 6.848271,3.53456 v 4.71281 c 0,8.24737 -9.35194,8.91011 -11.413783,8.91011 -4.786425,0 -19.366612,-2.57729 -19.366612,-24.52123 0,-22.01755 14.506548,-24.44757 18.924786,-24.44757 7.879194,0 14.580191,6.62736 16.052937,17.45202 0.14727,1.03093 0.14727,1.25185 1.178197,1.25185 1.178191,0 1.178191,-0.22103 1.178191,-1.76732 v -17.45202 c 0,-1.25185 0,-1.76732 -0.810007,-1.76732 -0.294541,0 -0.589097,0 -1.178197,0.88366 l -3.681863,5.44916 c -2.356395,-2.3564 -6.33281,-6.33282 -13.622903,-6.33282 -13.696543,0 -25.625787,11.63471 -25.625787,26.73036 0,15.09565 11.78197,26.80397 25.773061,26.80397 5.375525,0 11.266508,-1.91455 13.770177,-6.25916 0.957285,1.62001 3.902776,4.5655 4.712786,4.5655 0.662733,0 0.662733,-0.58908 0.662733,-1.69363 v -12.81291 c 0,-2.87186 0.29454,-3.24002 5.08098,-3.24002 z m -54.539958,17.82021 v -2.28275 H 49.7058 c -4.418237,0 -5.449161,-0.51546 -6.259171,-2.94548 L 27.54097,156.62005 c -0.368195,-0.95728 -0.515461,-1.47274 -1.693659,-1.47274 -1.178197,0 -1.39911,0.44185 -1.767294,1.47274 L 8.8370936,200.65519 c -1.3254716,3.75549 -4.2709669,4.86004 -8.24738174,4.93369 v 2.28275 l 7.51100694,-0.22103 8.4682912,0.22103 v -2.28275 c -3.681866,0 -5.5228,-1.84093 -5.5228,-3.75552 0,-0.22104 0.07365,-0.95728 0.147271,-1.10455 l 3.387318,-9.6465 h 18.188415 l 3.90278,11.26651 c 0.07365,0.29447 0.220924,0.73639 0.220924,1.03093 0,2.20913 -4.123689,2.20913 -6.111897,2.20913 v 2.28275 c 2.650944,-0.22103 7.805556,-0.22103 10.603773,-0.22103 z M 31.959208,188.79956 H 15.390813 l 8.247378,-23.9321 z m -61.092492,-14.21199 -1.399107,-16.56839 H -75.52479 l -1.399111,16.56839 h 1.840933 c 1.030923,-11.85563 2.135482,-14.28565 13.254716,-14.28565 1.325472,0 3.240044,0 3.976415,0.14724 1.546385,0.29446 1.546385,1.10458 1.546385,2.79821 v 38.80691 c 0,2.50367 0,3.5346 -7.73192,3.5346 h -2.945492 v 2.28275 c 3.019131,-0.22103 10.530138,-0.22103 13.917452,-0.22103 3.387318,0 10.97196,0 13.991091,0.22103 v -2.28275 h -2.945492 c -7.73192,0 -7.73192,-1.03093 -7.73192,-3.5346 v -38.80687 c 0,-1.47274 0,-2.50367 1.325471,-2.79822 0.810014,-0.14723 2.798222,-0.14723 4.197328,-0.14723 11.119235,0 12.223793,2.43002 13.254716,14.28565 z m -46.831033,33.28406 v -2.28275 h -1.325472 c -4.418237,0 -5.44916,-0.51546 -6.25917,-2.94548 l -15.905659,-46.02335 c -0.368195,-0.95728 -0.515462,-1.47274 -1.693662,-1.47274 -1.17819,0 -1.3991,0.44185 -1.76729,1.47274 l -15.24293,44.03514 c -1.32547,3.75549 -4.27096,4.86004 -8.24738,4.93369 v 2.28275 l 7.51101,-0.22103 8.46829,0.22103 v -2.28275 c -3.68186,0 -5.5228,-1.84093 -5.5228,-3.75552 0,-0.22104 0.0737,-0.95728 0.14727,-1.10455 l 3.38732,-9.6465 h 18.188412 l 3.902779,11.26651 c 0.07362,0.29447 0.220925,0.73639 0.220925,1.03093 0,2.20913 -4.123693,2.20913 -6.111901,2.20913 v 2.28275 c 2.650944,-0.22103 7.805556,-0.22103 10.603777,-0.22103 z m -19.072064,-19.07207 h -16.568399 l 8.24738,-23.9321 z m -35.908549,0.0737 h -1.84093 c -1.84093,11.34012 -3.53459,16.71566 -16.20021,16.71566 h -9.79376 c -3.46095,0 -3.60823,-0.51546 -3.60823,-2.94548 v -19.66119 h 6.62736 c 7.14282,0 7.95283,2.3564 7.95283,8.61557 h 1.84093 V 172.0839 h -1.84093 c 0,6.33282 -0.81001,8.61556 -7.95283,8.61556 h -6.62736 v -17.67294 c 0,-2.43005 0.14727,-2.94552 3.60823,-2.94552 h 9.49921 c 11.26651,0 13.25472,4.05007 14.43291,14.28565 h 1.84094 l -2.06185,-16.5684 h -41.4578 v 2.28275 h 1.76729 c 5.67007,0 5.81735,0.81004 5.81735,3.46099 v 38.58594 c 0,2.65095 -0.14727,3.46095 -5.81735,3.46095 h -1.76729 v 2.28275 h 42.48873 z m -48.33024,12.51832 c 0,-0.44181 0,-1.25181 -0.95728,-1.25181 -0.81001,0 -0.81001,0.66273 -0.88365,1.1782 -0.44182,5.22823 -3.01913,6.5537 -4.86006,6.5537 -3.60823,0 -4.19733,-3.75549 -5.22825,-10.60377 l -0.95729,-5.89097 c -1.32547,-4.7128 -4.9337,-7.14282 -8.98375,-8.54195 7.14282,-1.76728 12.88653,-6.25916 12.88653,-12.00286 0,-7.06921 -8.39465,-13.25472 -19.21934,-13.25472 h -23.12212 v 2.28275 h 1.7673 c 5.67007,0 5.81735,0.81001 5.81735,3.46095 v 38.80687 c 0,2.65095 -0.14728,3.46095 -5.81735,3.46095 h -1.7673 v 2.28275 c 2.65095,-0.22103 7.8792,-0.22103 10.75105,-0.22103 2.87186,0 8.10011,0 10.75105,0.22103 v -2.28275 h -1.7673 c -5.67007,0 -5.81734,-0.81 -5.81734,-3.46095 v -18.63025 h 8.46829 c 1.17819,0 4.27096,0 6.84827,2.50367 2.79822,2.65094 2.79822,4.93369 2.79822,9.86738 0,4.78646 0,7.73195 3.01913,10.53016 3.01913,2.65094 7.06918,3.09275 9.2783,3.09275 5.74371,0 6.99554,-6.03823 6.99554,-8.1001 z m -16.56839,-30.55946 c 0,5.08096 -1.7673,11.04558 -12.66562,11.04558 h -8.17374 v -19.0721 c 0,-1.69367 0,-2.57729 1.62002,-2.79822 0.73637,-0.14723 2.87185,-0.14723 4.3446,-0.14723 6.62736,0 14.87474,0.29447 14.87474,10.97197 z m -41.02749,19.21934 v -2.28279 l -8.98375,0.22104 c -2.9455,0 -9.20467,0 -11.85561,-0.22104 v 2.28279 h 2.35639 c 6.62736,0 6.84827,0.81 6.84827,3.53456 v 4.71281 c 0,8.24737 -9.35194,8.91011 -11.41378,8.91011 -4.78643,0 -19.36661,-2.57729 -19.36661,-24.52123 0,-22.01755 14.50654,-24.44757 18.92479,-24.44757 7.87919,0 14.58018,6.62736 16.05293,17.45202 0.14727,1.03093 0.14727,1.25185 1.1782,1.25185 1.17819,0 1.17819,-0.22103 1.17819,-1.76732 v -17.45202 c 0,-1.25185 0,-1.76732 -0.81001,-1.76732 -0.29455,0 -0.5891,0 -1.17819,0.88366 l -3.68187,5.44916 c -2.35639,-2.3564 -6.33281,-6.33282 -13.6229,-6.33282 -13.69654,0 -25.62579,11.63471 -25.62579,26.73036 0,15.09565 11.78197,26.80397 25.77306,26.80397 5.37553,0 11.26651,-1.91455 13.77018,-6.25916 0.95728,1.62001 3.90278,4.5655 4.71279,4.5655 0.66273,0 0.66273,-0.58908 0.66273,-1.69363 v -12.81291 c 0,-2.87186 0.29455,-3.24002 5.08098,-3.24002 z M -20.057483,96.826558 h -1.840933 c -1.840933,11.340162 -3.534592,16.715662 -16.200208,16.715662 h -9.793762 c -3.460954,0 -3.608232,-0.51546 -3.608232,-2.94548 V 90.935589 h 6.627362 c 7.142816,0 7.95283,2.356403 7.95283,8.615566 h 1.840933 V 80.037276 h -1.840933 c 0,6.332779 -0.810014,8.615565 -7.95283,8.615565 h -6.627362 V 70.979862 c 0,-2.430019 0.147271,-2.945485 3.608232,-2.945485 h 9.49921 c 11.266513,0 13.25472,4.050069 14.432914,14.285647 h 1.840933 l -2.061843,-16.568395 h -41.457807 v 2.282748 h 1.767294 c 5.670074,0 5.817348,0.810007 5.817348,3.46095 v 38.585943 c 0,2.65095 -0.14727,3.46095 -5.817348,3.46095 h -1.767294 v 2.28279 h 42.48873 z m -51.055969,18.998452 v -2.28279 c -3.976415,0 -5.522796,-0.29446 -7.731917,-3.53456 L -95.855587,84.970967 -82.60087,72.231717 c 0.589096,-0.58912 4.491876,-4.34461 10.456498,-4.418264 v -2.282748 c -1.914572,0.221036 -4.270967,0.221036 -6.259174,0.221036 -2.650943,0 -6.848268,0 -9.351937,-0.221036 v 2.282748 c 2.945492,0.0738 3.387315,1.76732 3.387315,2.430056 0,1.178201 -0.736371,1.914554 -1.325472,2.430019 L -108.74212,94.69108 V 71.274403 c 0,-2.650944 0.14727,-3.46095 5.81735,-3.46095 h 1.76729 v -2.282748 c -2.5773,0.221036 -8.02646,0.221036 -10.82468,0.221036 -2.79822,0 -8.32102,0 -10.89832,-0.221036 v 2.282748 h 1.76729 c 5.67008,0 5.81735,0.810006 5.81735,3.46095 v 38.806867 c 0,2.65095 -0.14727,3.46095 -5.81735,3.46095 h -1.76729 v 2.28279 c 2.5773,-0.22104 8.02646,-0.22104 10.82468,-0.22104 2.79822,0 8.32102,0 10.89832,0.22104 v -2.28279 h -1.76729 c -5.67007,0 -5.81735,-0.81 -5.81735,-3.46095 V 97.194753 l 8.54193,-8.1001 13.328353,19.734807 c 0.441826,0.66273 1.104562,1.62001 1.104562,2.50367 0,2.20909 -2.871857,2.20909 -4.344602,2.20909 v 2.28279 c 2.577304,-0.22104 7.731916,-0.22104 10.530133,-0.22104 z m -56.627108,0 v -2.28279 h -1.32547 c -4.41823,0 -5.44916,-0.51546 -6.25917,-2.94548 l -15.90566,-46.023312 c -0.36819,-0.957277 -0.51546,-1.472742 -1.69366,-1.472742 -1.17819,0 -1.3991,0.441811 -1.76729,1.472742 l -15.24292,44.035102 c -1.32547,3.75549 -4.27097,4.86008 -8.24738,4.93369 v 2.28279 l 7.511,-0.22104 8.46829,0.22104 v -2.28279 c -3.68186,0 -5.5228,-1.84093 -5.5228,-3.75549 0,-0.22103 0.0737,-0.95727 0.14727,-1.10454 l 3.38732,-9.6465 h 18.18842 l 3.90278,11.26651 c 0.0736,0.29446 0.22092,0.73635 0.22092,1.03093 0,2.20909 -4.12369,2.20909 -6.1119,2.20909 v 2.28279 c 2.65094,-0.22104 7.80556,-0.22104 10.60377,-0.22104 z m -19.07206,-19.072069 h -16.56839 l 8.24737,-23.932142 z m -36.59544,19.072069 v -2.28279 h -1.7673 c -5.67007,0 -5.81734,-0.81 -5.81734,-3.46095 V 71.274403 c 0,-2.650944 0.14727,-3.46095 5.81734,-3.46095 h 1.7673 v -2.282748 h -12.44471 c -1.91457,0 -1.91457,0.0738 -2.43003,1.399125 l -16.12657,41.45778 -15.9793,-41.236893 c -0.66273,-1.620012 -0.88364,-1.620012 -2.5773,-1.620012 h -12.44471 v 2.282748 h 1.7673 c 5.67007,0 5.81734,0.810006 5.81734,3.46095 v 36.818667 c 0,1.9882 0,5.44915 -7.58464,5.44915 v 2.28279 l 8.61557,-0.22104 8.61556,0.22104 v -2.28279 c -7.58464,0 -7.58464,-3.46095 -7.58464,-5.44915 V 68.402572 h 0.0736 l 17.74659,45.802388 c 0.36819,0.95731 0.73637,1.62005 1.47275,1.62005 0.81001,0 1.03092,-0.58912 1.32547,-1.39913 L -197.031,67.813453 h 0.0736 v 42.267817 c 0,2.65095 -0.14727,3.46095 -5.81734,3.46095 h -1.7673 v 2.28279 c 2.72458,-0.22104 7.73192,-0.22104 10.60377,-0.22104 2.87186,0 7.80556,0 10.53014,0.22104 z" />
      </g>
    </g>
  </g>
  <g
     inkscape:groupmode="layer"
     id="layer6"
     inkscape:label="Layer 5"
     transform="translate(-4.5357147,-82.309526)">
    <ellipse
       style="fill:#e50000;fill-opacity:1;stroke:none;stroke-width:1.16499996;stroke-miterlimit:4;stroke-dasharray:none;stroke-opacity:1"
       id="path986"
       cx="98.368301"
       cy="85.333336"
       rx="8.2209816"
       ry="3.0238097" />
  </g>
</svg>
